<svg xmlns="http://www.w3.org/2000/svg" viewBox="0 0 92 92"><defs><clipPath id="a"><path d="M0 .11h91.89V92H0Zm0 0"/></clipPath></defs><g clip-path="url(#a)"><path d="M90.16 41.97 50.04 1.85a5.91 5.91 0 0 0-8.37 0l-8.33 8.33L43.9 20.75a7.03 7.03 0 0 1 7.23 1.68 7.04 7.04 0 0 1 1.68 7.28l10.18 10.18a7.03 7.03 0 0 1 7.28 1.67 7.04 7.04 0 0 1 0 9.96 7.04 7.04 0 0 1-9.96 0 7.04 7.04 0 0 1-1.54-7.66l-9.5-9.5v25a7.04 7.04 0 0 1 1.86 11.29 7.04 7.04 0 0 1-9.95 0 7.04 7.04 0 0 1 0-9.96 7.03 7.03 0 0 1 2.3-1.54V33.93a7 7 0 0 1-2.3-1.54 7.05 7.05 0 0 1-1.52-7.7L29.24 14.27l-27.5 27.5a5.92 5.92 0 0 0 0 8.38l40.11 40.12a5.92 5.92 0 0 0 8.37 0l39.94-39.93a5.92 5.92 0 0 0 0-8.38" style="stroke:none;fill-rule:nonzero;fill:#100f0d;fill-opacity:1"/></g></svg>
